<svg xmlns="http://www.w3.org/2000/svg" width="62" height="19" viewBox="0 0 62 19">
  <g id="Group_2" data-name="Group 2" transform="translate(-840 -325)">
    <path id="Path_8" data-name="Path 8" d="M72,9H68L66.165,5.942A4,4,0,0,0,62.735,4H27.265a4,4,0,0,0-3.43,1.942L22,9H18a3,3,0,0,0,0,6H72a3,3,0,0,0,0-6Z" transform="translate(826 328)" fill="#f15b6c"/>
    <path id="Path_7" data-name="Path 7" d="M77,31H23a4,4,0,0,1,0-8h3.434l1.543-2.572A5.026,5.026,0,0,1,32.265,18H67.736a5.024,5.024,0,0,1,4.287,2.428L73.566,23H77a4,4,0,0,1,0,8ZM23,25a2,2,0,0,0,0,4H77a2,2,0,0,0,0-4H73a1,1,0,0,1-.857-.485l-1.835-3.058A3.017,3.017,0,0,0,67.735,20H32.265a3.015,3.015,0,0,0-2.572,1.457l-1.835,3.058A1,1,0,0,1,27,25Z" transform="translate(821 313)" fill="#1f212b"/>
    <path id="Path_9" data-name="Path 9" d="M61.5,13h-36a.5.5,0,0,1,0-1h36a.5.5,0,0,1,0,1Zm12,0h-5a.5.5,0,0,1,0-1h5a.5.5,0,0,1,0,1Zm-7,0h-2a.5.5,0,0,1,0-1h2a.5.5,0,0,1,0,1Z" transform="translate(821 328)" fill="#1f212b"/>
    <path id="Path_10" data-name="Path 10" d="M56,4a1,1,0,0,1-1-1V0a1,1,0,0,0-1-1H46a1,1,0,0,0-1,1V3a1,1,0,0,1-2,0V0a3,3,0,0,1,3-3h8a3,3,0,0,1,3,3V3A1,1,0,0,1,56,4Z" transform="translate(821 328)" fill="#1f212b"/>
  </g>
</svg>
