<svg xmlns="http://www.w3.org/2000/svg" width="51.994" height="53.077" viewBox="0 0 51.994 53.077">
  <g id="Group_1" data-name="Group 1" transform="translate(-845.003 -383.923)">
    <path id="Path_1" data-name="Path 1" d="M25,30l3.645,47.383A5,5,0,0,0,33.63,82H66.37a5,5,0,0,0,4.985-4.617L75,30" transform="translate(821 354)" fill="#f37e98"/>
    <path id="Path_2" data-name="Path 2" d="M65,38V73a3,3,0,0,1-6,0V38a3,3,0,0,1,6,0ZM53,38V73a3,3,0,0,1-6,0V38a3,3,0,0,1,6,0ZM41,38V73a3,3,0,0,1-6,0V38a3,3,0,0,1,6,0Z" transform="translate(821 354)" fill="#f15b6c"/>
    <path id="Path_3" data-name="Path 3" d="M66.37,83H33.63a6.027,6.027,0,0,1-5.982-5.54L24,30.077,26,29.923l3.645,47.384A4.018,4.018,0,0,0,33.63,81H66.37a4.018,4.018,0,0,0,3.988-3.692L74,29.923,76,30.077,72.352,77.461A6.028,6.028,0,0,1,66.37,83Z" transform="translate(821 354)" fill="#1f212b"/>
    <path id="Path_5" data-name="Path 5" d="M50,76a3,3,0,0,1-3-3V38a3,3,0,0,1,6,0V63.5a.5.5,0,0,1-1,0V38a2,2,0,0,0-4,0V73a2,2,0,0,0,4,0V69.5a.5.5,0,0,1,1,0V73A3,3,0,0,1,50,76Zm12,0a3,3,0,0,1-3-3V47.5a.5.5,0,0,1,1,0V73a2,2,0,0,0,4,0V38a2,2,0,0,0-4,0v1.5a.5.5,0,0,1-1,0V38a3,3,0,0,1,6,0V73A3,3,0,0,1,62,76Z" transform="translate(821 354)" fill="#1f212b"/>
    <path id="Path_6" data-name="Path 6" d="M59.5,45a.5.5,0,0,1-.5-.5v-2a.5.5,0,0,1,1,0v2A.5.5,0,0,1,59.5,45ZM38,76a3,3,0,0,1-3-3V38a3,3,0,0,1,6,0V73A3,3,0,0,1,38,76Zm0-40a2,2,0,0,0-2,2V73a2,2,0,0,0,4,0V38A2,2,0,0,0,38,36Z" transform="translate(821 354)" fill="#1f212b"/>
  </g>
</svg>
